<svg width="111" height="64" viewBox="0 0 111 64" fill="none" xmlns="http://www.w3.org/2000/svg">
<rect y="9" width="36" height="54" rx="9" fill="#DCDF48"/>
<path d="M17.9852 8.41302C19.7509 3.76664 24.9489 1.43137 29.5953 3.19704L46.4213 9.59113C51.0677 11.3568 53.403 16.5548 51.6373 21.2012L38.8491 54.8533C37.0834 59.4997 31.8854 61.8349 27.2391 60.0693L10.413 53.6752C5.76663 51.9095 3.43135 46.7115 5.19703 42.0651L17.9852 8.41302Z" fill="#A061B7"/>
<path d="M63.296 28.694C64.0667 28.694 64.826 28.796 65.574 29C66.3447 29.1813 67.0473 29.476 67.682 29.884L66.696 32.06C66.1973 31.652 65.642 31.346 65.03 31.142C64.418 30.938 63.8173 30.836 63.228 30.836C62.3893 30.836 61.6527 31.0287 61.018 31.414C60.406 31.7993 60.1 32.3773 60.1 33.148C60.1 33.9867 60.372 34.61 60.916 35.018C61.4827 35.426 62.1513 35.8113 62.922 36.174C63.67 36.514 64.418 36.8993 65.166 37.33C65.9367 37.738 66.5827 38.2707 67.104 38.928C67.6253 39.5627 67.886 40.424 67.886 41.512C67.886 42.6453 67.6027 43.586 67.036 44.334C66.492 45.0593 65.7667 45.592 64.86 45.932C63.976 46.272 63.0127 46.442 61.97 46.442C61.0633 46.442 60.1567 46.3173 59.25 46.068C58.3433 45.8187 57.5047 45.4673 56.734 45.014L57.924 42.94C58.468 43.348 59.08 43.6767 59.76 43.926C60.44 44.1753 61.0973 44.3 61.732 44.3C62.5933 44.3 63.3413 44.096 63.976 43.688C64.6333 43.28 64.962 42.668 64.962 41.852C64.962 41.2853 64.7807 40.8207 64.418 40.458C64.078 40.0727 63.636 39.7327 63.092 39.438C62.548 39.1433 61.9813 38.86 61.392 38.588C60.712 38.248 60.0433 37.8853 59.386 37.5C58.7513 37.092 58.23 36.582 57.822 35.97C57.414 35.358 57.21 34.576 57.21 33.624C57.21 32.536 57.4933 31.6293 58.06 30.904C58.6493 30.1787 59.4087 29.6347 60.338 29.272C61.2673 28.8867 62.2533 28.694 63.296 28.694ZM78.7894 28.694C80.8294 28.694 82.3707 29.306 83.4134 30.53C84.4787 31.7313 85.0114 33.318 85.0114 35.29C85.0114 35.6073 84.9887 35.936 84.9434 36.276C84.9207 36.5933 84.8867 36.9333 84.8414 37.296H74.0974C74.0974 39.4493 74.5734 41.1153 75.5254 42.294C76.4774 43.4727 77.7467 44.062 79.3334 44.062C80.6254 44.062 82.0534 43.654 83.6174 42.838L84.6714 44.538C83.878 45.1727 82.9827 45.6487 81.9854 45.966C80.988 46.2833 79.9794 46.442 78.9594 46.442C77.1914 46.442 75.718 46.0227 74.5394 45.184C73.3834 44.3453 72.522 43.2573 71.9554 41.92C71.3887 40.5827 71.1054 39.1887 71.1054 37.738C71.1054 36.6047 71.264 35.5053 71.5814 34.44C71.8987 33.3747 72.3747 32.4113 73.0094 31.55C73.6667 30.666 74.4714 29.9747 75.4234 29.476C76.3754 28.9547 77.4974 28.694 78.7894 28.694ZM78.5174 30.836C77.7467 30.836 77.0667 31.0513 76.4774 31.482C75.888 31.9127 75.412 32.468 75.0494 33.148C74.6867 33.8053 74.4374 34.4853 74.3014 35.188H82.0534C82.0987 33.7827 81.804 32.706 81.1694 31.958C80.5347 31.21 79.6507 30.836 78.5174 30.836ZM92.7002 23.424C92.7002 23.9907 92.4962 24.478 92.0882 24.886C91.7028 25.294 91.2155 25.498 90.6262 25.498C90.0595 25.498 89.5722 25.294 89.1642 24.886C88.7788 24.478 88.5862 23.9907 88.5862 23.424C88.5862 22.8573 88.7788 22.37 89.1642 21.962C89.5722 21.554 90.0595 21.35 90.6262 21.35C91.1928 21.35 91.6802 21.554 92.0882 21.962C92.4962 22.37 92.7002 22.8573 92.7002 23.424ZM92.0882 29.102V46H89.2662V31.108L88.8582 29.102H92.0882ZM103.239 28.694C104.01 28.694 104.769 28.796 105.517 29C106.288 29.1813 106.991 29.476 107.625 29.884L106.639 32.06C106.141 31.652 105.585 31.346 104.973 31.142C104.361 30.938 103.761 30.836 103.171 30.836C102.333 30.836 101.596 31.0287 100.961 31.414C100.349 31.7993 100.043 32.3773 100.043 33.148C100.043 33.9867 100.315 34.61 100.859 35.018C101.426 35.426 102.095 35.8113 102.865 36.174C103.613 36.514 104.361 36.8993 105.109 37.33C105.88 37.738 106.526 38.2707 107.047 38.928C107.569 39.5627 107.829 40.424 107.829 41.512C107.829 42.6453 107.546 43.586 106.979 44.334C106.435 45.0593 105.71 45.592 104.803 45.932C103.919 46.272 102.956 46.442 101.913 46.442C101.007 46.442 100.1 46.3173 99.1934 46.068C98.2867 45.8187 97.448 45.4673 96.6774 45.014L97.8674 42.94C98.4114 43.348 99.0234 43.6767 99.7034 43.926C100.383 44.1753 101.041 44.3 101.675 44.3C102.537 44.3 103.285 44.096 103.919 43.688C104.577 43.28 104.905 42.668 104.905 41.852C104.905 41.2853 104.724 40.8207 104.361 40.458C104.021 40.0727 103.579 39.7327 103.035 39.438C102.491 39.1433 101.925 38.86 101.335 38.588C100.655 38.248 99.9867 37.8853 99.3294 37.5C98.6947 37.092 98.1734 36.582 97.7654 35.97C97.3574 35.358 97.1534 34.576 97.1534 33.624C97.1534 32.536 97.4367 31.6293 98.0034 30.904C98.5927 30.1787 99.352 29.6347 100.281 29.272C101.211 28.8867 102.197 28.694 103.239 28.694Z" fill="white"/>
</svg>
