<svg width="406" height="205" viewBox="0 0 406 205" fill="none" xmlns="http://www.w3.org/2000/svg">
<rect y="28.3289" width="134" height="175" rx="50" fill="#DCDF48"/>
<path d="M58.7541 45.8038C69.8275 20.507 100.063 7.01319 126.287 15.6644L156.517 25.6371C182.741 34.2883 195.023 61.8086 183.95 87.1053L152.686 158.525C141.613 183.822 111.377 197.316 85.1534 188.664L54.9234 178.692C28.6993 170.041 16.4173 142.52 27.4907 117.224L58.7541 45.8038Z" fill="#A061B7"/>
<path d="M211.92 127.04C211.92 121.376 213.936 116.864 217.968 113.504C222 110.144 226.656 108.464 231.936 108.464C237.312 108.464 242.448 109.424 247.344 111.344C252.24 113.264 254.688 115.808 254.688 118.976C254.688 120.608 254.064 121.904 252.816 122.864C251.568 123.824 250.464 124.304 249.504 124.304C248.64 124.304 247.92 124.304 247.344 124.304C246.864 124.208 244.944 123.296 241.584 121.568C238.32 119.84 235.296 118.976 232.512 118.976C229.728 118.976 227.328 119.696 225.312 121.136C223.392 122.48 222.432 124.496 222.432 127.184C222.432 129.872 223.536 131.984 225.744 133.52C228.048 135.056 232.032 136.4 237.696 137.552C243.36 138.608 247.68 140.144 250.656 142.16C253.728 144.176 255.264 147.92 255.264 153.392C255.264 161.36 253.152 167.024 248.928 170.384C244.8 173.648 239.76 175.28 233.808 175.28C227.856 175.28 222.768 174.464 218.544 172.832C214.416 171.2 212.352 168.752 212.352 165.488C212.352 161.744 214.224 159.872 217.968 159.872C218.928 159.872 221.04 160.544 224.304 161.888C227.568 163.232 230.784 163.904 233.952 163.904C237.216 163.904 239.664 162.896 241.296 160.88C243.024 158.768 243.888 156.368 243.888 153.68C243.888 150.992 242.784 149.072 240.576 147.92C238.368 146.672 235.008 145.664 230.496 144.896C225.984 144.128 222.672 143.312 220.56 142.448C214.8 140.144 211.92 135.008 211.92 127.04ZM285.614 109.328C290.702 109.328 295.55 110.816 300.158 113.792C304.766 116.768 307.07 120.464 307.07 124.88C307.07 129.2 305.198 133.424 301.454 137.552C297.71 141.584 292.718 144.032 286.478 144.896C283.79 145.28 279.758 145.472 274.382 145.472C275.438 153.632 277.502 159.008 280.574 161.6C281.534 162.656 282.83 163.184 284.462 163.184C290.414 163.184 295.406 161.312 299.438 157.568C303.47 153.728 306.35 151.808 308.078 151.808C308.846 151.808 309.998 152.528 311.534 153.968C313.07 155.408 313.838 156.752 313.838 158C313.838 160.496 310.814 164.096 304.766 168.8C302.078 171.008 298.814 172.88 294.974 174.416C291.23 175.856 287.726 176.576 284.462 176.576C276.11 176.576 269.966 171.2 266.03 160.448C263.534 153.824 262.286 146.528 262.286 138.56C262.286 130.592 264.158 123.728 267.902 117.968C271.646 112.208 277.55 109.328 285.614 109.328ZM286.334 119.264C282.686 119.264 279.566 121.328 276.974 125.456C276.014 126.896 275.102 130.16 274.238 135.248C287.678 135.248 294.398 131.936 294.398 125.312C294.398 121.28 291.71 119.264 286.334 119.264ZM331.757 84.992C333.485 84.992 335.117 85.808 336.653 87.44C338.189 89.072 338.957 90.8 338.957 92.624C338.957 94.352 338.093 96.128 336.365 97.952C334.733 99.776 333.005 100.688 331.181 100.688C329.357 100.688 327.677 99.92 326.141 98.384C324.701 96.848 323.981 94.88 323.981 92.48C323.981 87.872 326.477 85.376 331.469 84.992C331.565 84.992 331.661 84.992 331.757 84.992ZM337.805 160.448L337.949 170.528C337.949 172.352 337.229 173.888 335.789 175.136C334.349 176.288 332.813 176.864 331.181 176.864C328.781 176.864 327.533 175.664 327.437 173.264C326.189 142.64 325.565 125.696 325.565 122.432C325.565 119.168 325.709 115.184 325.997 110.48C326.189 108.752 327.293 107.888 329.309 107.888C334.397 107.888 337.277 109.952 337.949 114.08C338.237 116.192 338.381 117.872 338.381 119.12L337.805 128.192V160.448ZM356.904 127.04C356.904 121.376 358.92 116.864 362.952 113.504C366.984 110.144 371.64 108.464 376.92 108.464C382.296 108.464 387.432 109.424 392.328 111.344C397.224 113.264 399.672 115.808 399.672 118.976C399.672 120.608 399.048 121.904 397.8 122.864C396.552 123.824 395.448 124.304 394.488 124.304C393.624 124.304 392.904 124.304 392.328 124.304C391.848 124.208 389.928 123.296 386.568 121.568C383.304 119.84 380.28 118.976 377.496 118.976C374.712 118.976 372.312 119.696 370.296 121.136C368.376 122.48 367.416 124.496 367.416 127.184C367.416 129.872 368.52 131.984 370.728 133.52C373.032 135.056 377.016 136.4 382.68 137.552C388.344 138.608 392.664 140.144 395.64 142.16C398.712 144.176 400.248 147.92 400.248 153.392C400.248 161.36 398.136 167.024 393.912 170.384C389.784 173.648 384.744 175.28 378.792 175.28C372.84 175.28 367.752 174.464 363.528 172.832C359.4 171.2 357.336 168.752 357.336 165.488C357.336 161.744 359.208 159.872 362.952 159.872C363.912 159.872 366.024 160.544 369.288 161.888C372.552 163.232 375.768 163.904 378.936 163.904C382.2 163.904 384.648 162.896 386.28 160.88C388.008 158.768 388.872 156.368 388.872 153.68C388.872 150.992 387.768 149.072 385.56 147.92C383.352 146.672 379.992 145.664 375.48 144.896C370.968 144.128 367.656 143.312 365.544 142.448C359.784 140.144 356.904 135.008 356.904 127.04Z" fill="white"/>
</svg>
